<?xml version="1.0" standalone="no"?>
<!DOCTYPE svg PUBLIC "-//W3C//DTD SVG 20010904//EN"
 "http://www.w3.org/TR/2001/REC-SVG-20010904/DTD/svg10.dtd">
<svg version="1.0" xmlns="http://www.w3.org/2000/svg"
 width="251.000000pt" height="251.000000pt" viewBox="0 0 251.000000 251.000000"
 preserveAspectRatio="xMidYMid meet">
<metadata>
Created by potrace 1.11, written by Peter Selinger 2001-2013
</metadata>
<g transform="translate(0.000000,251.000000) scale(0.100000,-0.100000)"
fill="#000000" stroke="none">
<path d="M223 1255 l0 -1035 46 -1 c25 -1 49 -1 53 0 5 0 8 -3 8 -9 0 -5 -5
-10 -11 -10 -5 0 -8 -4 -5 -9 4 -5 0 -12 -6 -14 -10 -4 -10 -6 0 -6 7 -1 17 9
23 22 11 25 36 32 36 11 0 -7 -7 -10 -16 -6 -9 3 -13 2 -9 -3 4 -4 2 -15 -5
-23 -9 -13 -9 -14 1 -8 7 4 12 1 12 -8 0 -9 5 -16 10 -16 7 0 7 6 0 20 -10 18
-8 20 22 20 30 0 31 1 12 14 -10 8 -16 18 -11 22 4 4 7 2 7 -6 0 -10 3 -10 15
0 13 11 14 10 10 -2 -3 -8 6 -25 22 -38 l27 -25 -17 27 c-20 32 -21 38 -6 38
5 0 8 -4 4 -9 -3 -5 -1 -12 4 -15 5 -4 13 4 16 15 6 19 9 20 16 6 5 -9 16 -14
24 -11 19 8 19 -6 -1 -34 -9 -13 -13 -26 -10 -29 3 -4 6 -1 6 6 0 7 5 9 10 6
6 -4 8 -11 5 -16 -3 -5 1 -6 11 -2 15 6 15 7 -1 15 -15 9 -15 11 2 30 17 19
17 20 -2 34 -10 8 -14 14 -7 14 6 0 17 -9 25 -20 8 -11 17 -17 20 -13 4 3 1
13 -6 22 -11 14 -10 14 6 2 14 -11 20 -11 34 0 9 8 14 9 10 3 -4 -7 1 -18 10
-25 14 -12 15 -11 9 11 -4 14 -4 21 1 15 13 -16 34 -17 52 -3 9 7 13 8 9 4 -4
-5 -3 -15 3 -22 16 -20 -10 -28 -30 -10 -17 16 -19 16 -25 0 -4 -9 -9 -14 -13
-11 -3 4 -15 2 -26 -4 -10 -6 -17 -7 -14 -2 3 5 -5 9 -18 9 -14 0 -27 -6 -29
-13 -4 -10 -1 -11 14 -3 15 8 21 6 29 -7 6 -11 11 -13 11 -5 0 7 5 10 10 7 6
-3 10 -1 10 5 0 6 5 8 10 5 6 -4 7 -12 4 -18 -4 -7 -4 -9 1 -5 4 4 17 3 28 -3
13 -7 17 -7 13 -1 -10 16 13 25 29 12 9 -7 15 -8 20 0 3 5 11 10 16 10 6 0 8
-4 5 -8 -3 -5 1 -9 9 -9 12 0 12 3 2 15 -10 13 -9 14 10 3 19 -9 22 -9 17 3
-3 8 -17 13 -37 12 -28 -2 -32 1 -33 23 -1 14 1 20 3 13 4 -10 8 -10 19 -1 12
10 13 9 8 -5 -3 -9 -1 -16 5 -16 6 0 11 5 11 10 0 6 5 10 11 10 5 0 8 -4 4 -9
-3 -5 -1 -12 4 -15 5 -4 13 4 16 15 6 19 9 20 16 6 5 -9 16 -14 24 -11 19 8
19 -6 -1 -34 -9 -13 -13 -26 -10 -29 3 -4 6 -1 6 6 0 7 5 9 10 6 6 -4 8 -11 5
-16 -3 -5 1 -6 11 -2 15 6 15 7 -1 15 -15 9 -15 11 2 30 17 19 17 20 -2 34
-10 8 -14 14 -7 14 6 0 17 -9 25 -20 8 -11 17 -17 20 -13 4 3 1 13 -6 22 -11
14 -10 14 6 2 14 -11 20 -11 34 0 9 8 14 9 10 3 -4 -7 1 -18 10 -25 14 -12 15
-11 9 11 -4 14 -4 21 1 15 13 -16 34 -17 52 -3 9 7 13 8 9 4 -4 -5 -3 -15 3
-22 16 -20 -10 -28 -30 -10 -17 16 -19 16 -25 0 -4 -9 -9 -14 -13 -11 -3 4
-15 2 -26 -4 -10 -6 -17 -7 -14 -2 3 5 -5 9 -18 9 -14 0 -27 -6 -29 -13 -4
-10 -1 -11 14 -3 15 8 21 6 29 -7 6 -11 11 -13 11 -5 0 7 5 10 10 7 6 -3 10
-1 10 5 0 6 5 8 10 5 6 -4 7 -12 4 -18 -4 -7 -4 -9 1 -5 4 4 17 3 28 -3 13 -7
17 -7 13 -1 -10 16 13 25 29 12 9 -7 15 -8 20 0 3 5 11 10 16 10 6 0 8 -4 5
-8 -3 -5 1 -9 9 -9 12 0 12 3 2 15 -10 13 -9 14 10 3 19 -9 22 -9 17 3 -3 8
-17 13 -37 12 -28 -2 -32 1 -33 23 -1 14 1 20 3 13 4 -10 8 -10 19 -1 12 10
13 9 8 -5 -3 -9 -1 -16 5 -16 6 0 11 5 11 10 0 6 5 10 11 10 5 0 8 -4 4 -9 -3
-5 -1 -12 4 -15 5 -4 13 4 16 15 6 19 9 20 16 6 5 -9 16 -14 24 -11 19 8 19
-6 -1 -34 -9 -13 -13 -26 -10 -29 3 -4 6 -1 6 6 0 7 5 9 10 6 6 -4 8 -11 5
-16 -3 -5 1 -6 11 -2 15 6 15 7 -1 15 -15 9 -15 11 2 30 17 19 17 20 -2 34
-10 8 -14 14 -7 14 6 0 17 -9 25 -20 8 -11 17 -17 20 -13 4 3 1 13 -6 22 -11
14 -10 14 6 2 14 -11 20 -11 34 0 9 8 14 9 10 3 -4 -7 1 -18 10 -25 14 -12 15
-11 9 11 -4 14 -4 21 1 15 13 -16 34 -17 52 -3 9 7 13 8 9 4 -4 -5 -3 -15 3
-22 16 -20 -10 -28 -30 -10 -17 16 -19 16 -25 0 -4 -9 -9 -14 -13 -11 -3 4
-15 2 -26 -4 -10 -6 -17 -7 -14 -2 3 5 -5 9 -18 9 -14 0 -27 -6 -29 -13 -4
-10 -1 -11 14 -3 15 8 21 6 29 -7 6 -11 11 -13 11 -5 0 7 5 10 10 7 6 -3 10
-1 10 5 0 6 5 8 10 5 6 -4 7 -12 4 -18 -4 -7 -4 -9 1 -5 4 4 17 3 28 -3 13 -7
17 -7 13 -1 -10 16 13 25 29 12 9 -7 15 -8 20 0 3 5 11 10 16 10 6 0 8 -4 5
-8 -3 -5 1 -9 9 -9 12 0 12 3 2 15 -10 13 -9 14 10 3 19 -9 22 -9 17 3 -3 8
-17 13 -37 12 -28 -2 -32 1 -33 23 -1 14 1 20 3 13 4 -10 8 -10 19 -1 12 10
13 9 8 -5 -3 -9 -1 -16 5 -16 6 0 11 5 11 10 0 6 5 10 11 10 5 0 8 -4 4 -9 -3
-5 -1 -12 4 -15 5 -4 13 4 16 15 6 19 9 20 16 6 5 -9 16 -14 24 -11 19 8 19
-6 -1 -34 -9 -13 -13 -26 -10 -29 3 -4 6 -1 6 6 0 7 5 9 10 6 6 -4 8 -11 5
-16 -3 -5 1 -6 11 -2 15 6 15 7 -1 15 -15 9 -15 11 2 30 17 19 17 20 -2 34
-10 8 -14 14 -7 14 6 0 17 -9 25 -20 8 -11 17 -17 20 -13 4 3 1 13 -6 22 -11
14 -10 14 6 2 14 -11 20 -11 34 0 9 8 14 9 10 3 -4 -7 1 -18 10 -25 14 -12 15
-11 9 11 -4 14 -4 21 1 15 13 -16 34 -17 52 -3 9 7 13 8 9 4 -4 -5 -3 -15 3
-22 16 -20 -10 -28 -30 -10 -17 16 -19 16 -25 0 -4 -9 -9 -14 -13 -11 -3 4
-15 2 -26 -4 -10 -6 -17 -7 -14 -2 3 5 -5 9 -18 9 -14 0 -27 -6 -29 -13 -4
-10 -1 -11 14 -3 15 8 21 6 29 -7 6 -11 11 -13 11 -5 0 7 5 10 10 7 6 -3 10
-1 10 5 0 6 5 8 10 5 6 -4 7 -12 4 -18 -4 -7 -4 -9 1 -5 4 4 17 3 28 -3 13 -7
17 -7 13 -1 -10 16 13 25 29 12 9 -7 15 -8 20 0 3 5 11 10 16 10 6 0 8 -4 5
-8 -3 -5 1 -9 9 -9 12 0 12 3 2 15 -10 13 -9 14 10 3 19 -9 22 -9 17 3 -3 8
-17 13 -37 12 -28 -2 -32 1 -33 23 -1 14 1 20 3 13 4 -10 8 -10 19 -1 12 10
13 9 8 -5 -3 -9 -1 -16 5 -16 6 0 11 5 11 10 0 6 5 10 11 10 5 0 8 -4 4 -9 -3
-5 -1 -12 4 -15 5 -4 13 4 16 15 6 19 9 20 16 6 5 -9 16 -14 24 -11 19 8 19
-6 -1 -34 -9 -13 -13 -26 -10 -29 3 -4 6 -1 6 6 0 7 5 9 10 6 6 -4 8 -11 5
-16 -3 -5 1 -6 11 -2 15 6 15 7 -1 15 -15 9 -15 11 2 30 17 19 17 20 -2 34
-10 8 -14 14 -7 14 6 0 17 -9 25 -20 8 -11 17 -17 20 -13 4 3 1 13 -6 22 -11
14 -10 14 6 2 14 -11 20 -11 34 0 9 8 14 9 10 3 -4 -7 1 -18 10 -25 14 -12 15
-11 9 11 -4 14 -4 21 1 15 13 -16 34 -17 52 -3 9 7 13 8 9 4 -4 -5 -3 -15 3
-22 16 -20 -10 -28 -30 -10 -17 16 -19 16 -25 0 -4 -9 -9 -14 -13 -11 -3 4
-15 2 -26 -4 -10 -6 -17 -7 -14 -2 3 5 -5 9 -18 9 -14 0 -27 -6 -29 -13 -4
-10 -1 -11 14 -3 15 8 21 6 29 -7 6 -11 11 -13 11 -5 0 7 5 10 10 7 6 -3 10
-1 10 5 0 6 5 8 10 5 6 -4 7 -12 4 -18 -4 -7 -4 -9 1 -5 4 4 17 3 28 -3 13 -7
17 -7 13 -1 -10 16 13 25 29 12 9 -7 15 -8 20 0 3 5 11 10 16 10 6 0 8 -4 5
-8 -3 -5 1 -9 9 -9 12 0 12 3 2 15 -10 13 -9 14 10 3 19 -9 22 -9 17 3 -3 8
-17 13 -37 12 -28 -2 -32 1 -33 23 -1 14 1 20 3 13 4 -10 8 -10 19 -1 12 10
13 9 8 -5 -3 -9 -1 -16 5 -16 6 0 11 5 11 10 0 6 5 10 11 10 5 0 8 -4 4 -9 -3
-5 -1 -12 4 -15 5 -4 13 4 16 15 6 19 9 20 16 6 6 -9 16 -14 25 -10 13 5 15 1
9 -18 -7 -23 -7 -23 11 -6 19 18 18 19 0 33 -11 8 -15 14 -10 14 6 0 14 -3 18
-7 11 -11 50 -11 65 1 11 8 13 8 8 0 -4 -7 1 -18 10 -25 14 -12 15 -11 9 11
-6 21 -5 22 4 7 11 -17 13 -16 41 4 16 11 27 24 24 28 -2 5 7 6 20 3 14 -2 25
-9 25 -14 0 -5 -4 -6 -10 -3 -5 3 -19 1 -30 -5 -16 -9 -18 -15 -10 -30 5 -10
7 -27 4 -37 -3 -10 2 -5 11 10 14 25 19 27 33 15 15 -12 16 -11 3 4 -11 15
-11 21 -1 33 10 12 10 18 0 30 -7 8 -16 13 -20 10 -5 -3 -12 0 -16 6 -4 7 -3
9 3 6 6 -4 14 0 17 9 5 12 1 14 -15 9 -14 -5 -19 -3 -15 4 8 13 67 10 62 -4
-2 -5 -9 -9 -15 -7 -21 4 -11 -15 14 -26 16 -7 26 -8 30 -1 4 5 3 9 -2 8 -26
-5 -35 1 -24 15 9 11 10 20 1 36 -14 26 -6 40 20 35 12 -2 18 0 15 5 -3 5 -14
7 -25 5 -11 -2 -22 0 -25 5 -3 5 -18 7 -33 4 -24 -4 -25 -3 -9 10 16 12 16 15
1 26 -14 12 -14 14 0 22 26 15 29 14 31 -9 1 -12 -1 -20 -5 -18 -4 2 -7 -1 -7
-8 0 -7 8 -13 18 -13 11 0 15 6 11 16 -5 13 -4 13 14 0 19 -14 19 -14 0 7 -15
18 -16 25 -6 37 10 13 8 15 -9 11 -17 -3 -20 0 -17 18 3 12 5 27 5 34 1 7 8
10 16 7 8 -4 15 -1 15 6 0 6 -4 9 -9 5 -5 -3 -12 -1 -15 4 -4 5 -19 8 -34 5
-24 -4 -25 -3 -10 9 16 13 16 15 0 30 -12 13 -13 17 -3 17 11 0 11 3 1 15 -11
13 -10 14 6 9 19 -7 19 -7 0 14 -11 12 -15 22 -10 22 16 0 33 -36 23 -51 -5
-8 -9 -18 -8 -24 0 -5 6 1 13 15 l14 25 -1 -27 c-1 -14 -5 -24 -9 -21 -5 2 -8
2 -8 -1 0 -3 9 -10 20 -16 17 -9 19 -8 13 7 -6 16 -5 17 13 3 18 -14 18 -14 2
6 -19 22 -23 40 -11 47 5 2 2 2 -5 0 -9 -2 -11 3 -7 16 3 11 1 22 -4 26 -7 4
-8 0 -4 -11 4 -11 -2 -9 -18 7 -13 13 -20 26 -16 27 4 2 3 10 -3 17 -8 9 -7
14 4 18 11 4 13 1 9 -10 -4 -10 -2 -14 5 -9 6 3 14 1 18 -5 4 -7 3 -9 -3 -6
-5 3 -10 1 -10 -6 0 -7 12 -13 25 -14 18 -1 21 1 11 8 -12 8 -12 11 1 20 13 9
12 10 -3 5 -15 -5 -17 -2 -12 13 3 11 1 22 -4 26 -7 4 -9 -1 -5 -12 5 -17 5
-17 -6 -1 -6 10 -17 15 -28 11 -10 -3 -7 2 7 12 23 18 23 18 3 29 -15 9 -18
16 -11 34 5 12 13 22 19 22 5 0 9 3 9 8 -3 19 2 29 16 29 9 0 14 -5 12 -11 -3
-6 -9 -10 -15 -9 -6 2 -9 -6 -7 -16 2 -10 -1 -24 -7 -32 -8 -11 -9 -10 -4 4 3
9 1 17 -4 17 -6 0 -10 -9 -10 -21 0 -14 5 -19 14 -16 10 4 14 0 11 -13 -3 -17
22 -37 33 -25 3 3 0 5 -6 5 -7 0 -12 5 -12 11 0 5 5 7 12 3 7 -5 8 -3 3 6 -6
10 -4 12 9 7 10 -4 15 -3 11 3 -4 6 -14 9 -22 8 -9 -2 -18 3 -21 11 -3 10 0
11 9 5 11 -6 10 -3 -1 11 -13 17 -13 18 1 13 12 -5 15 0 14 21 -1 15 -5 33
-10 40 -4 8 -2 17 6 23 11 8 10 9 -3 4 -10 -3 -18 -1 -18 4 0 6 5 11 10 11 6
1 14 2 19 3 5 0 13 5 18 10 5 5 2 6 -6 1 -10 -6 -12 -2 -7 16 7 23 7 23 -6 3
-7 -12 -19 -19 -27 -16 -8 2 -11 0 -8 -5 3 -5 2 -15 -3 -23 -8 -13 -12 -12
-24 5 -12 17 -12 21 5 33 10 7 19 18 19 25 0 8 -3 8 -12 -1 -7 -7 -17 -12 -22
-12 -6 0 -4 5 4 9 8 5 18 8 21 8 11 -3 39 25 33 34 -3 5 -10 7 -15 3 -5 -3 -7
-10 -4 -15 4 -5 -5 -4 -18 2 -26 12 -27 46 -1 56 8 3 14 9 14 14 0 6 -7 6 -18
0 -14 -7 -19 -6 -19 4 0 8 7 11 16 7 13 -4 12 -1 -3 16 -11 12 -15 22 -10 22
12 0 38 -41 40 -62 1 -10 -4 -14 -12 -11 -9 3 -14 -2 -14 -16 0 -12 5 -21 11
-21 6 0 9 6 6 14 -6 15 9 16 31 3 7 -5 12 -4 12 2 0 6 -4 11 -8 11 -13 0 -11
34 2 43 7 6 4 7 -7 3 -15 -5 -17 -2 -12 13 3 11 1 22 -4 26 -7 4 -8 0 -4 -11
4 -11 -2 -9 -18 7 -13 13 -20 26 -16 27 4 2 3 10 -3 17 -8 9 -7 14 4 18 11 4
13 1 9 -10 -4 -10 -2 -14 5 -9 6 3 14 1 18 -5 4 -7 3 -9 -3 -6 -5 3 -10 1 -10
-6 0 -7 12 -13 25 -14 18 -1 21 1 11 8 -12 8 -12 11 1 20 13 9 12 10 -3 5 -15
-5 -17 -2 -12 13 3 11 1 22 -4 26 -7 4 -9 -1 -5 -12 5 -17 5 -17 -6 -1 -6 10
-17 15 -27 11 -11 -5 -10 0 6 16 12 12 19 27 15 33 -6 9 -9 9 -12 0 -2 -7 -8
-12 -14 -12 -6 0 -6 6 2 15 9 11 10 18 1 28 -8 11 -5 16 13 25 20 9 24 8 21
-6 -1 -9 3 -20 9 -24 6 -4 7 -10 3 -15 -5 -4 -13 -1 -18 7 -9 13 -10 13 -6 0
2 -8 12 -14 21 -14 9 1 15 -3 13 -10 -3 -6 -10 -10 -16 -8 -6 1 -11 -2 -11 -7
0 -11 31 -24 38 -16 3 3 0 5 -8 5 -10 0 -10 3 -1 14 9 11 10 20 1 36 -14 26
-6 40 20 35 12 -2 18 0 15 5 -3 5 -14 7 -25 5 -11 -2 -22 0 -25 5 -3 5 -18 7
-33 4 -24 -4 -25 -3 -9 10 16 12 16 15 1 26 -14 12 -14 14 0 22 20 11 30 7 31
-14 1 -9 -1 -15 -5 -13 -4 2 -7 -1 -7 -8 0 -7 8 -13 18 -13 11 0 15 6 11 16
-5 13 -4 13 14 0 19 -14 19 -14 0 7 -15 18 -16 25 -6 37 10 13 8 15 -9 11 -17
-3 -20 0 -17 18 3 12 5 27 5 34 1 7 8 10 16 7 8 -4 15 -1 15 6 0 6 -4 9 -9 5
-5 -3 -12 -1 -15 4 -4 5 -19 8 -34 5 -24 -4 -25 -3 -10 9 16 13 16 15 0 30
-12 13 -13 17 -3 17 11 0 11 3 1 15 -11 13 -10 14 6 9 19 -7 19 -7 0 14 -11
12 -15 22 -10 22 16 0 33 -36 23 -51 -5 -8 -9 -18 -8 -24 0 -5 6 1 13 15 l14
25 -1 -27 c-1 -14 -5 -24 -9 -21 -5 2 -8 2 -8 -1 0 -3 9 -10 20 -16 17 -9 19
-8 13 7 -6 16 -5 17 13 3 18 -14 18 -14 2 6 -19 22 -23 40 -11 47 5 2 2 2 -5
0 -9 -2 -11 3 -7 16 3 11 1 22 -4 26 -7 4 -8 0 -4 -11 4 -11 -2 -9 -18 7 -13
13 -20 26 -16 27 4 2 3 10 -3 17 -8 9 -7 14 4 18 11 4 13 1 9 -10 -4 -10 -2
-14 5 -9 6 3 14 1 18 -5 4 -7 3 -9 -3 -6 -5 3 -10 1 -10 -6 0 -7 12 -13 25
-14 18 -1 21 1 11 8 -12 8 -12 11 1 20 13 9 12 10 -3 5 -15 -5 -17 -2 -12 13
3 11 1 22 -4 26 -7 4 -9 -1 -5 -12 5 -17 5 -17 -6 -1 -6 10 -17 15 -28 11 -10
-3 -7 2 7 12 23 18 23 18 3 29 -15 9 -18 16 -11 34 5 12 13 22 19 22 5 0 9 3
9 8 -3 19 2 29 16 29 9 0 14 -5 12 -11 -3 -6 -9 -10 -15 -9 -6 2 -9 -6 -7 -16
2 -10 -1 -24 -7 -32 -8 -11 -9 -10 -4 4 3 9 1 17 -4 17 -6 0 -10 -9 -10 -21 0
-14 5 -19 14 -16 10 4 14 0 11 -13 -3 -17 22 -37 33 -25 3 3 0 5 -6 5 -7 0
-12 5 -12 11 0 5 5 7 12 3 7 -5 8 -3 3 6 -6 10 -4 12 9 7 10 -4 15 -3 11 3 -4
6 -14 9 -22 8 -9 -2 -18 3 -21 11 -3 10 0 11 9 5 11 -6 10 -3 -1 11 -13 17
-13 18 1 13 12 -5 15 0 14 21 -1 15 -5 33 -10 40 -4 8 -2 17 6 23 11 8 10 9
-3 4 -10 -3 -18 -1 -18 4 0 6 5 11 10 11 6 1 14 2 19 3 5 0 13 5 18 10 5 5 2
6 -6 1 -10 -6 -12 -2 -7 16 7 23 7 23 -6 3 -7 -12 -19 -19 -27 -16 -8 2 -11 0
-8 -5 3 -5 2 -15 -3 -23 -8 -13 -12 -12 -24 5 -12 17 -12 21 5 33 10 7 19 18
19 25 0 8 -3 8 -12 -1 -7 -7 -17 -12 -22 -12 -6 0 -3 5 6 11 10 5 19 8 21 7 2
-2 11 3 20 11 17 14 13 36 -4 25 -5 -3 -7 -10 -4 -15 4 -5 -5 -4 -18 2 -26 12
-27 46 -1 56 20 8 17 21 -6 28 -20 6 -20 7 2 26 l23 20 -24 -7 c-16 -4 -21 -3
-17 5 4 6 15 11 24 11 15 0 15 2 2 11 -12 8 -9 9 10 4 19 -5 22 -4 10 4 -8 6
-12 11 -7 12 10 2 25 6 35 9 4 1 11 2 15 1 5 -1 6 3 2 9 -4 7 -11 8 -18 1 -13
-10 -41 12 -30 23 4 3 4 6 1 6 -3 0 -12 -8 -19 -17 -8 -9 -9 -14 -3 -10 6 3
11 0 11 -8 0 -21 -10 -19 -25 6 -8 12 -9 18 -4 15 6 -3 12 1 16 9 3 8 -1 18
-9 22 -15 9 -15 9 -15 58 l0 35 -1034 0 -1033 0 0 -1035z m2112 595 c-3 -5 -1
-10 4 -10 6 0 11 -5 11 -11 0 -5 -4 -8 -9 -5 -5 3 -14 -1 -21 -9 -7 -8 -18
-15 -24 -15 -6 0 -3 5 7 11 9 6 14 15 11 21 -4 6 0 14 7 19 18 11 22 11 14 -1z
m-7 -384 c-18 -13 -25 -32 -9 -22 5 4 8 0 7 -6 -3 -21 -16 -38 -29 -38 -7 0
-4 7 6 14 16 12 16 15 1 26 -14 12 -13 15 8 26 30 17 38 17 16 0z m7 -576 c-3
-5 -1 -10 4 -10 6 0 11 -5 11 -11 0 -5 -4 -8 -9 -5 -5 3 -14 -1 -21 -9 -7 -8
-18 -15 -24 -15 -6 0 -3 5 7 11 9 6 14 15 11 21 -4 6 0 14 7 19 18 11 22 11
14 -1z m-7 -384 c-18 -13 -25 -32 -9 -22 5 4 8 0 7 -6 -3 -21 -16 -38 -29 -38
-7 0 -4 7 6 14 16 12 16 15 1 26 -14 12 -13 15 8 26 30 17 38 17 16 0z m12
-171 c-8 -10 -7 -14 2 -18 7 -2 9 -8 5 -13 -4 -5 -12 -2 -17 6 -6 8 -10 11
-10 6 0 -5 -7 -3 -16 5 -14 11 -13 14 8 25 27 14 44 8 28 -11z m-20 -135 c-12
-22 -21 -26 -17 -7 2 10 17 26 25 27 1 0 -2 -9 -8 -20z m-1655 -29 c7 -12 -12
-24 -25 -16 -11 7 -4 25 10 25 5 0 11 -4 15 -9z m320 0 c7 -12 -12 -24 -25
-16 -11 7 -4 25 10 25 5 0 11 -4 15 -9z m320 0 c7 -12 -12 -24 -25 -16 -11 7
-4 25 10 25 5 0 11 -4 15 -9z m320 0 c7 -12 -12 -24 -25 -16 -11 7 -4 25 10
25 5 0 11 -4 15 -9z m320 0 c7 -12 -12 -24 -25 -16 -11 7 -4 25 10 25 5 0 11
-4 15 -9z m-1225 -7 c0 -8 -19 -13 -24 -6 -3 5 1 9 9 9 8 0 15 -2 15 -3z m320
0 c0 -8 -19 -13 -24 -6 -3 5 1 9 9 9 8 0 15 -2 15 -3z m320 0 c0 -8 -19 -13
-24 -6 -3 5 1 9 9 9 8 0 15 -2 15 -3z m320 0 c0 -8 -19 -13 -24 -6 -3 5 1 9 9
9 8 0 15 -2 15 -3z m320 0 c0 -8 -19 -13 -24 -6 -3 5 1 9 9 9 8 0 15 -2 15 -3z"/>
<path d="M2320 340 c-8 -5 -12 -12 -9 -15 4 -3 12 1 19 10 14 17 11 19 -10 5z"/>
<path d="M2316 2208 c3 -4 11 -5 19 -1 21 7 19 12 -4 10 -11 0 -18 -5 -15 -9z"/>
<path d="M2346 2187 c3 -10 9 -15 12 -12 3 3 0 11 -7 18 -10 9 -11 8 -5 -6z"/>
<path d="M2335 2091 c3 -5 -2 -16 -10 -25 -13 -13 -13 -15 7 -22 l22 -7 -22
-17 c-23 -19 -30 -50 -11 -50 6 0 9 6 6 14 -6 15 9 16 31 3 7 -5 12 -4 12 2 0
6 -4 11 -9 11 -4 0 -7 16 -6 34 1 19 -2 33 -7 30 -4 -3 -8 0 -8 5 0 6 8 11 18
11 14 0 15 2 2 10 -19 12 -33 13 -25 1z"/>
<path d="M2370 2050 c0 -5 5 -10 11 -10 5 0 7 5 4 10 -3 6 -8 10 -11 10 -2 0
-4 -4 -4 -10z"/>
<path d="M2342 1927 c-33 -34 -39 -47 -22 -47 6 0 9 4 8 9 -2 5 12 23 29 40
18 17 29 31 25 31 -5 0 -22 -15 -40 -33z"/>
<path d="M2365 1670 c-3 -5 -1 -10 4 -10 6 0 11 5 11 10 0 6 -2 10 -4 10 -3 0
-8 -4 -11 -10z"/>
<path d="M2366 1592 c-3 -5 1 -9 9 -9 8 0 12 4 9 9 -3 4 -7 8 -9 8 -2 0 -6 -4
-9 -8z"/>
<path d="M2376 1543 c-6 -14 -5 -15 5 -6 7 7 10 15 7 18 -3 3 -9 -2 -12 -12z"/>
<path d="M2351 1438 c-1 -20 14 -24 25 -6 4 6 3 8 -4 4 -5 -3 -13 0 -15 6 -3
8 -6 6 -6 -4z"/>
<path d="M2376 1383 c-6 -14 -5 -15 5 -6 7 7 10 15 7 18 -3 3 -9 -2 -12 -12z"/>
<path d="M2315 1379 c-4 -6 -5 -12 -2 -15 2 -3 7 2 10 11 7 17 1 20 -8 4z"/>
<path d="M2310 1289 c0 -5 5 -7 10 -4 6 3 10 8 10 11 0 2 -4 4 -10 4 -5 0 -10
-5 -10 -11z"/>
<path d="M2365 1190 c-3 -5 -1 -10 4 -10 6 0 11 5 11 10 0 6 -2 10 -4 10 -3 0
-8 -4 -11 -10z"/>
<path d="M2366 1112 c-3 -5 1 -9 9 -9 8 0 12 4 9 9 -3 4 -7 8 -9 8 -2 0 -6 -4
-9 -8z"/>
<path d="M2342 967 c-33 -34 -39 -47 -22 -47 6 0 9 4 8 9 -2 5 12 23 29 40 18
17 29 31 25 31 -5 0 -22 -15 -40 -33z"/>
<path d="M2365 710 c-3 -5 -1 -10 4 -10 6 0 11 5 11 10 0 6 -2 10 -4 10 -3 0
-8 -4 -11 -10z"/>
<path d="M2366 632 c-3 -5 1 -9 9 -9 8 0 12 4 9 9 -3 4 -7 8 -9 8 -2 0 -6 -4
-9 -8z"/>
<path d="M2376 583 c-6 -14 -5 -15 5 -6 7 7 10 15 7 18 -3 3 -9 -2 -12 -12z"/>
<path d="M2351 478 c-1 -20 14 -24 25 -6 4 6 3 8 -4 4 -5 -3 -13 0 -15 6 -3 8
-6 6 -6 -4z"/>
<path d="M2376 423 c-6 -14 -5 -15 5 -6 7 7 10 15 7 18 -3 3 -9 -2 -12 -12z"/>
<path d="M2315 419 c-4 -6 -5 -12 -2 -15 2 -3 7 2 10 11 7 17 1 20 -8 4z"/>
<path d="M467 186 c-8 -21 12 -32 27 -15 6 8 10 13 7 12 -2 -2 -10 2 -16 7 -9
8 -14 6 -18 -4z"/>
<path d="M590 190 c0 -5 5 -10 11 -10 5 0 7 5 4 10 -3 6 -8 10 -11 10 -2 0 -4
-4 -4 -10z"/>
<path d="M670 190 c0 -5 5 -10 11 -10 5 0 7 5 4 10 -3 6 -8 10 -11 10 -2 0 -4
-4 -4 -10z"/>
<path d="M787 186 c-8 -21 12 -32 27 -15 6 8 10 13 7 12 -2 -2 -10 2 -16 7 -9
8 -14 6 -18 -4z"/>
<path d="M910 190 c0 -5 5 -10 11 -10 5 0 7 5 4 10 -3 6 -8 10 -11 10 -2 0 -4
-4 -4 -10z"/>
<path d="M990 190 c0 -5 5 -10 11 -10 5 0 7 5 4 10 -3 6 -8 10 -11 10 -2 0 -4
-4 -4 -10z"/>
<path d="M1107 186 c-8 -21 12 -32 27 -15 6 8 10 13 7 12 -2 -2 -10 2 -16 7
-9 8 -14 6 -18 -4z"/>
<path d="M1230 190 c0 -5 5 -10 11 -10 5 0 7 5 4 10 -3 6 -8 10 -11 10 -2 0
-4 -4 -4 -10z"/>
<path d="M1310 190 c0 -5 5 -10 11 -10 5 0 7 5 4 10 -3 6 -8 10 -11 10 -2 0
-4 -4 -4 -10z"/>
<path d="M1427 186 c-8 -21 12 -32 27 -15 6 8 10 13 7 12 -2 -2 -10 2 -16 7
-9 8 -14 6 -18 -4z"/>
<path d="M1550 190 c0 -5 5 -10 11 -10 5 0 7 5 4 10 -3 6 -8 10 -11 10 -2 0
-4 -4 -4 -10z"/>
<path d="M1630 190 c0 -5 5 -10 11 -10 5 0 7 5 4 10 -3 6 -8 10 -11 10 -2 0
-4 -4 -4 -10z"/>
<path d="M1747 186 c-8 -21 12 -32 27 -15 6 8 10 13 7 12 -2 -2 -10 2 -16 7
-9 8 -14 6 -18 -4z"/>
<path d="M1870 190 c0 -5 5 -10 11 -10 5 0 7 5 4 10 -3 6 -8 10 -11 10 -2 0
-4 -4 -4 -10z"/>
<path d="M1950 190 c0 -5 5 -10 11 -10 5 0 7 5 4 10 -3 6 -8 10 -11 10 -2 0
-4 -4 -4 -10z"/>
<path d="M2066 185 c-3 -9 1 -18 9 -21 8 -4 15 -12 15 -19 0 -8 4 -17 10 -20
6 -4 7 2 1 18 -6 15 -6 29 0 36 5 6 6 9 3 6 -4 -3 -13 0 -19 5 -9 8 -14 6 -19
-5z"/>
<path d="M2142 175 c-11 -24 -10 -25 8 -15 15 8 21 6 29 -7 6 -11 11 -13 11
-5 0 7 5 10 10 7 6 -3 10 -1 10 5 0 6 5 8 10 5 6 -4 8 -10 6 -14 -3 -4 1 -8 9
-8 11 0 12 4 4 14 -8 9 -8 13 -1 13 6 0 15 -7 19 -15 7 -12 10 -12 20 4 6 10
8 24 3 31 -6 10 -12 9 -31 -3 -21 -15 -24 -15 -41 0 -14 12 -18 13 -18 3 0
-11 -3 -11 -12 -2 -17 17 -23 15 -36 -13z m57 2 c13 4 14 3 1 -5 -9 -7 -19 -7
-26 -2 -6 6 -15 6 -19 2 -5 -4 -5 -1 0 6 5 9 11 10 17 4 6 -6 18 -8 27 -5z
m75 -8 c-3 -5 -10 -7 -15 -3 -5 3 -7 10 -3 15 3 5 10 7 15 3 5 -3 7 -10 3 -15z"/>
<path d="M403 173 c-7 -3 -13 -9 -13 -14 0 -4 7 -5 17 -2 10 4 14 2 10 -4 -3
-5 0 -10 8 -10 12 0 12 3 3 16 -7 9 -12 17 -13 17 0 1 -6 -1 -12 -3z"/>
<path d="M555 141 c-3 -5 -2 -12 3 -15 5 -3 9 1 9 9 0 17 -3 19 -12 6z"/>
<path d="M875 141 c-3 -5 -2 -12 3 -15 5 -3 9 1 9 9 0 17 -3 19 -12 6z"/>
<path d="M1195 141 c-3 -5 -2 -12 3 -15 5 -3 9 1 9 9 0 17 -3 19 -12 6z"/>
<path d="M1515 141 c-3 -5 -2 -12 3 -15 5 -3 9 1 9 9 0 17 -3 19 -12 6z"/>
<path d="M1835 141 c-3 -5 -2 -12 3 -15 5 -3 9 1 9 9 0 17 -3 19 -12 6z"/>
<path d="M2117 139 c7 -7 15 -10 18 -7 3 3 -2 9 -12 12 -14 6 -15 5 -6 -5z"/>
<path d="M2155 141 c-3 -5 -2 -12 3 -15 5 -3 9 1 9 9 0 17 -3 19 -12 6z"/>
</g>
</svg>
